<?xml version="1.0" standalone="no"?>
<svg xmlns="http://www.w3.org/2000/svg" viewBox="0 0 272.3445479452055 130.06454794520548" width="272.3445479452055" height="130.06454794520548"><rect fill="#4242be" width="272.3445479452055" height="130.06454794520548" x="0" y="0"></rect><g fill="white" color="white" transform="translate(12 12) scale(0.2071574)"><svg width="512.0" height="512.0" x="0.0" y="0.0" viewBox="0 0 512 512"><g><g><path d="M112.05,405.006c-0.851,0-1.661-0.361-2.23-0.993c-5.677-6.308-12.161-12.798-19.026-19.669    c-25.66-25.685-54.744-54.796-54.744-88.338c0-20.525,7.951-39.705,22.389-54.006c14.318-14.183,33.357-21.994,53.611-21.994    s39.293,7.811,53.611,21.994c14.438,14.301,22.389,33.481,22.389,54.006c0,33.542-29.084,62.653-54.744,88.338    c-6.865,6.871-13.349,13.361-19.026,19.669C113.711,404.645,112.901,405.006,112.05,405.006z M112.05,226.006    c-38.598,0-70,31.402-70,70c0,31.059,28.151,59.236,52.989,84.097c6.046,6.052,11.799,11.811,17.011,17.452    c5.212-5.642,10.965-11.4,17.011-17.452c24.837-24.86,52.989-53.038,52.989-84.097C182.05,257.408,150.648,226.006,112.05,226.006    z"></path></g><g><path d="M112.05,334.006c-22.607,0-41-18.393-41-41c0-22.056,18.393-40,41-40s41,17.944,41,40    C153.05,315.613,134.658,334.006,112.05,334.006z M112.05,259.006c-18.972,0-35,15.57-35,34c0,19.299,15.701,35,35,35    s35-15.701,35-35C147.05,274.576,131.022,259.006,112.05,259.006z"></path></g><g><path d="M347.05,372.006h-133c-1.657,0-3-1.343-3-3v-92c0-1.657,1.343-3,3-3h133c1.657,0,3,1.343,3,3v92    C350.05,370.663,348.707,372.006,347.05,372.006z M217.05,366.006h127v-86h-127V366.006z"></path></g><g><path d="M367.05,280.006h-173c-1.339,0-2.516-0.888-2.884-2.175c-0.368-1.287,0.161-2.662,1.297-3.371l85-53    c0.957-0.596,2.168-0.606,3.135-0.024l88,53c1.154,0.695,1.703,2.075,1.343,3.373C369.579,279.107,368.397,280.006,367.05,280.006    z M204.532,274.006h151.722l-77.177-46.481L204.532,274.006z"></path></g><g><path d="M302.05,372.006h-43c-1.657,0-3-1.343-3-3v-60c0-1.657,1.343-3,3-3h43c1.657,0,3,1.343,3,3v60    C305.05,370.663,303.707,372.006,302.05,372.006z M262.05,366.006h37v-54h-37V366.006z"></path></g><g><path d="M460.05,357.006h-75c-1.657,0-3-1.343-3-3v-85c0-1.657,1.343-3,3-3h75c1.657,0,3,1.343,3,3v85    C463.05,355.663,461.707,357.006,460.05,357.006z M388.05,351.006h69v-79h-69V351.006z"></path></g><g><path d="M446.05,272.006h-47c-1.657,0-3-1.343-3-3v-35c0-1.657,1.343-3,3-3s3,1.343,3,3v32h41v-32c0-1.657,1.343-3,3-3    s3,1.343,3,3v35C449.05,270.663,447.707,272.006,446.05,272.006z"></path></g><g><path d="M446.05,392.006c-1.657,0-3-1.343-3-3v-32h-41v32c0,1.657-1.343,3-3,3s-3-1.343-3-3v-35c0-1.657,1.343-3,3-3h47    c1.657,0,3,1.343,3,3v35C449.05,390.663,447.707,392.006,446.05,392.006z"></path></g><g><path d="M437.05,290.006h-30c-1.657,0-3-1.343-3-3s1.343-3,3-3h30c1.657,0,3,1.343,3,3S438.707,290.006,437.05,290.006z"></path></g><g><path d="M437.05,303.006h-30c-1.657,0-3-1.343-3-3s1.343-3,3-3h30c1.657,0,3,1.343,3,3S438.707,303.006,437.05,303.006z"></path></g><g><path d="M486.05,429.006h-460c-1.657,0-3-1.343-3-3s1.343-3,3-3h460c1.657,0,3,1.343,3,3S487.707,429.006,486.05,429.006z"></path></g><g><path d="M486.05,200.006h-460c-1.657,0-3-1.343-3-3s1.343-3,3-3h460c1.657,0,3,1.343,3,3S487.707,200.006,486.05,200.006z"></path></g><g><path d="M383.05,200.006h-254c-1.657,0-3-1.343-3-3v-34c0-1.657,1.343-3,3-3h254c1.657,0,3,1.343,3,3v34    C386.05,198.663,384.707,200.006,383.05,200.006z M132.05,194.006h248v-28h-248V194.006z"></path></g><g><path d="M314.047,72.006c-0.559,0-1.123-0.156-1.627-0.482c-16.701-10.807-36.193-16.519-56.37-16.519    c-20.177,0-39.669,5.712-56.37,16.519c-1.392,0.9-3.248,0.501-4.148-0.889c-0.9-1.391-0.502-3.249,0.889-4.148    c17.674-11.437,38.294-17.481,59.63-17.481c21.335,0,41.955,6.045,59.629,17.481c1.391,0.9,1.789,2.757,0.889,4.148    C315.994,71.523,315.03,72.006,314.047,72.006z"></path></g><g><path d="M298.047,95.006c-0.571,0-1.149-0.164-1.661-0.504c-11.12-7.414-25.445-11.496-40.335-11.496    c-14.891,0-29.216,4.083-40.336,11.496c-1.378,0.92-3.24,0.547-4.16-0.832c-0.919-1.378-0.546-3.241,0.832-4.16    c12.095-8.063,27.602-12.504,43.664-12.504c16.062,0,31.569,4.44,43.664,12.504c1.379,0.919,1.751,2.782,0.832,4.16    C299.968,94.537,299.017,95.006,298.047,95.006z"></path></g><g><path d="M280.047,118.006c-0.505,0-1.016-0.127-1.485-0.396c-6.509-3.719-14.082-5.604-22.511-5.604s-16.003,1.886-22.512,5.604    c-1.438,0.823-3.271,0.323-4.093-1.116c-0.822-1.438-0.322-3.271,1.116-4.093c7.426-4.244,16.001-6.396,25.488-6.396    c9.486,0,18.062,2.152,25.488,6.396c1.438,0.822,1.938,2.654,1.116,4.093C282.101,117.463,281.089,118.006,280.047,118.006z"></path></g><g><path d="M256.05,155.006c-6.925,0-13-5.607-13-12c0-8.03,6.748-13,13-13c6.251,0,13,4.97,13,13    C269.05,149.398,262.976,155.006,256.05,155.006z M256.05,136.006c-3.367,0-7,2.676-7,7c0,3.379,3.763,6,7,6c3.237,0,7-2.621,7-6    C263.05,138.682,259.417,136.006,256.05,136.006z"></path></g><g><path d="M358.05,451.006h-279c-1.657,0-3-1.343-3-3s1.343-3,3-3h279c1.657,0,3,1.343,3,3S359.707,451.006,358.05,451.006z"></path></g><g><path d="M435.05,463.006h-192c-1.657,0-3-1.343-3-3s1.343-3,3-3h192c1.657,0,3,1.343,3,3S436.707,463.006,435.05,463.006z"></path></g><g><path d="M479.05,463.006h-24c-1.657,0-3-1.343-3-3s1.343-3,3-3h24c1.657,0,3,1.343,3,3S480.707,463.006,479.05,463.006z"></path></g><g><path d="M138.05,463.006h-91c-1.657,0-3-1.343-3-3s1.343-3,3-3h91c1.657,0,3,1.343,3,3S139.707,463.006,138.05,463.006z"></path></g></g></svg></g><path fill="white" fill-rule="nonzero" d="M15.08 30.56L0 30.56L0 0.56L15.24 0.56L14.76 5.24L5.88 5.24L5.88 12.40L12.20 12.40L12.16 17.44L5.88 17.44L5.88 25.88L15.56 25.88L15.08 30.56ZM27.24 31.12Q23.60 31.12 21.10 29.10Q18.60 27.08 17.44 23.68L17.44 23.68L22.40 21.36L22.88 22.16Q24.04 24.16 25.10 25.28Q26.16 26.40 27.76 26.40L27.76 26.40Q28.80 26.40 29.62 25.40Q30.44 24.40 30.44 23.20L30.44 23.20Q30.44 22.08 29.88 21.16Q29.32 20.24 28.44 19.68L28.44 19.68L23.20 16.56Q20.92 15.28 19.56 13.32Q18.20 11.36 18.20 8.92L18.20 8.92Q18.20 6.32 19.42 4.28Q20.64 2.24 22.74 1.12Q24.84 0 27.48 0L27.48 0Q30.56 0 32.72 1.52Q34.88 3.04 35.92 6.04L35.92 6.04L30.96 8.28Q30.80 7.96 30.28 6.84Q29.76 5.72 29.02 5.22Q28.28 4.72 27.20 4.72L27.20 4.72Q25.88 4.72 25.18 5.56Q24.48 6.40 24.48 7.72L24.48 7.72Q24.48 8.68 25.02 9.46Q25.56 10.24 26.32 10.68L26.32 10.68L31.16 13.52Q36.52 16.56 36.80 21.52L36.80 21.52Q36.80 24.36 35.54 26.54Q34.28 28.72 32.10 29.92Q29.92 31.12 27.24 31.12L27.24 31.12ZM40.64 30.80L40.64 0.56L44.40 0.56Q48.92 0.56 51.60 0.94Q54.28 1.32 56.34 3.28Q58.40 5.24 58.40 9.56L58.40 9.56Q58.40 13.48 56.66 15.50Q54.92 17.52 52.38 18.14Q49.84 18.76 46.52 18.76L46.52 18.76L46.52 30.32L40.64 30.80ZM46.56 14.00L47.56 14.00Q49.88 14.00 51.22 13.04Q52.56 12.08 52.56 9.52L52.56 9.52Q52.56 7.00 51.32 6.12Q50.08 5.24 47.40 5.24L47.40 5.24L46.56 5.24L46.56 14.00Z" transform="translate(133.065 12) scale(2.18)"></path><path fill="white" fill-rule="nonzero" d="M0 30.24L0 0L3.76 0Q8.28 0 10.96 0.38Q13.64 0.76 15.70 2.72Q17.76 4.68 17.76 9L17.76 9Q17.76 12.92 16.02 14.94Q14.28 16.96 11.74 17.58Q9.20 18.20 5.88 18.20L5.88 18.20L5.88 29.76L0 30.24ZM5.92 13.44L6.92 13.44Q9.24 13.44 10.58 12.48Q11.92 11.52 11.92 8.96L11.92 8.96Q11.92 6.44 10.68 5.56Q9.44 4.68 6.76 4.68L6.76 4.68L5.92 4.68L5.92 13.44ZM24.24 30L19 30L25.32 0.36L33.68 0L40.16 29.76L33.76 30L32.68 23.56L25.52 23.56L24.24 30ZM28.84 4.40L26.60 18.76L31.60 18.76L28.84 4.40ZM62.24 29.76L57.40 30.24L48.64 11.48L48.64 29.76L43.40 30L43.40 0.24L49.52 0L57.28 17.84L57.28 0.48L62.24 0L62.24 29.76ZM86.68 29.76L81.84 30.24L73.08 11.48L73.08 29.76L67.84 30L67.84 0.24L73.96 0L81.72 17.84L81.72 0.48L86.68 0L86.68 29.76ZM107.36 30L92.28 30L92.28 0L107.52 0L107.04 4.68L98.16 4.68L98.16 11.84L104.48 11.84L104.44 16.88L98.16 16.88L98.16 25.32L107.84 25.32L107.36 30ZM126.68 30L111.60 30L111.60 0.48L117.44 0L117.44 25.32L127.28 25.32L126.68 30Z" transform="translate(133.065 87.825) scale(1)"></path></svg>